<svg width="11" height="11" viewBox="0 0 11 11" fill="none" xmlns="http://www.w3.org/2000/svg">
<path d="M9.43462 0.0800781H1.56538C0.676922 0.0800781 0 0.750045 0 1.62938V9.41774C0 10.2971 0.676922 10.967 1.56538 10.967H9.43462C10.3231 10.967 11 10.2971 11 9.41774V1.62938C11 0.750045 10.3231 0.0800781 9.43462 0.0800781ZM5.5 8.78965C7.31923 8.78965 8.8 7.36597 8.8 5.64918C8.8 5.53644 8.79374 5.41751 8.78123 5.29954C8.75315 5.03492 8.94862 4.76985 9.21473 4.76985C9.42963 4.76985 9.60384 4.94406 9.60384 5.15897V9.20838C9.60384 9.41774 9.43461 9.62711 9.18077 9.62711H1.81923C1.60769 9.62711 1.39616 9.45961 1.39616 9.20838V5.14569C1.39616 4.91499 1.58317 4.72797 1.81387 4.72797C2.09187 4.72797 2.29119 4.99562 2.26077 5.27195C2.24846 5.38373 2.24231 5.49552 2.24231 5.60731C2.2 7.36597 3.68077 8.78965 5.5 8.78965ZM5.5 7.53346C4.31538 7.53346 3.38462 6.61226 3.38462 5.48169C3.38462 4.35112 4.31538 3.42991 5.5 3.42991C6.68462 3.42991 7.61538 4.35112 7.61538 5.48169C7.61538 6.65413 6.68462 7.53346 5.5 7.53346ZM9.56154 3.05306C9.56154 3.30429 9.35 3.51366 9.09615 3.51366H7.91154C7.65769 3.51366 7.44616 3.30429 7.44616 3.05306V1.92249C7.44616 1.67125 7.65769 1.46188 7.91154 1.46188H9.09615C9.35 1.46188 9.56154 1.67125 9.56154 1.92249V3.05306Z" fill="white"/>
</svg>
