<svg width="15" height="19" viewBox="0 0 15 19" fill="none" xmlns="http://www.w3.org/2000/svg">
<path d="M4.70521 13.029L0.19043 15.0814C0.611806 16.1095 1.42636 16.9266 2.45305 17.3512L3.33301 17.7151C4.11477 18.0384 4.95247 18.2048 5.79844 18.2048H7.93827C9.03046 18.2048 10.1096 17.9669 11.1005 17.5078L12.3969 16.9071C13.1992 16.5353 13.841 15.8873 14.2051 15.0814L9.59622 13.029V11.2442L10.8991 9.2809C11.0922 8.98995 11.1952 8.64852 11.1952 8.29934C11.2991 8.29934 11.3833 8.21512 11.3833 8.11122V7.80853V7.50584C11.3833 7.40195 11.2991 7.31772 11.1952 7.31772V5.97915H11.3833V4.88525C11.3833 3.81107 10.9728 2.77749 10.2358 1.99601L10.0268 1.7743C9.86594 1.60377 9.56248 1.38381 9.3607 1.26452C8.67074 0.856593 7.97086 0.892578 7.16933 0.892578H6.46747C5.86352 0.892578 5.25841 1.00172 4.72081 1.27692C4.4035 1.43936 4.06299 1.6383 3.76463 1.8742C3.68846 1.93442 3.61835 2.01244 3.55368 2.10266C2.90305 3.01035 2.91811 4.22945 2.91811 5.34624V5.97915H3.10623V7.13925C3.05428 7.13925 3.01217 7.18136 3.01217 7.2333V7.67467V8.08045C3.01217 8.16323 3.04618 8.24237 3.10623 8.29934C3.10623 8.65099 3.19073 8.99793 3.3616 9.30528C3.49135 9.53869 3.64035 9.79834 3.76463 9.99487C3.99037 10.3518 4.48574 10.9765 4.70521 11.2442V13.029Z" fill="#545454"/>
</svg>
