<svg width="15" height="9" viewBox="0 0 15 9" fill="none" xmlns="http://www.w3.org/2000/svg">
<path d="M14.1191 7.94073V7.94073C14.1191 7.85625 14.0442 7.7901 14.0016 7.71717C13.7541 7.29372 13.2788 6.78084 12.6621 6.22132C12.5991 6.16943 12.5421 6.11949 12.4903 6.07185C12.1762 5.78339 11.8289 5.42204 11.9318 5.00816C11.9323 5.00581 11.9329 5.00345 11.9335 5.00108C11.9896 4.83469 12.2137 4.55736 12.606 4.05817C12.6562 3.99613 12.7007 3.93965 12.7415 3.88747C12.977 3.58633 13.2293 3.29688 13.4509 2.98533C14.0048 2.20646 14.2793 1.66525 14.2475 1.36172C14.242 1.31016 14.212 1.26592 14.1752 1.22946V1.22946V1.22946C14.0544 1.10989 13.8682 1.06641 13.6987 1.07875C13.6942 1.07907 13.6896 1.07945 13.6851 1.07986C13.5618 1.09117 13.4396 1.11853 13.3158 1.11853H11.3731C11.3171 1.11853 11.3171 1.11853 11.205 1.11853C11.149 1.11853 11.0929 1.11853 11.0929 1.11853C11.0929 1.11853 11.0929 1.11853 11.0929 1.11853H11.0369V1.11853C11.001 1.11853 10.9665 1.13269 10.941 1.15795L10.9248 1.17399V1.17399C10.8633 1.23482 10.8538 1.32663 10.8225 1.40724C10.6067 1.96281 10.3454 2.43173 10.0842 2.94887C9.91607 3.22619 9.74795 3.50353 9.57983 3.72539C9.41171 3.94725 9.29962 4.11364 9.18754 4.22457C9.08419 4.32685 8.98085 4.38198 8.92144 4.47692C8.91136 4.49302 8.9007 4.509 8.88594 4.52094C8.86655 4.53663 8.84407 4.55123 8.82262 4.56203C8.77303 4.58701 8.67992 4.57677 8.64028 4.53788V4.53788C8.62112 4.51907 8.6164 4.49127 8.59732 4.47238C8.55122 4.42675 8.50512 4.38112 8.45902 4.3355C8.4534 4.32993 8.44833 4.3238 8.44372 4.31717C8.33964 4.16746 8.34694 3.96318 8.34694 3.78085V3.78085C8.34694 3.72538 8.34694 3.55899 8.34694 3.44806C8.34694 3.28166 8.34694 3.17073 8.34694 3.11527C8.34694 2.94887 8.34694 2.72702 8.34694 2.50515C8.34694 2.28329 8.34694 2.11689 8.34694 2.00596C8.34694 1.89503 8.34694 1.72864 8.34694 1.61771C8.34694 1.45131 8.34694 1.34038 8.34694 1.28492V1.28492C8.34694 1.13797 8.23214 1.0049 8.12769 0.901528C8.12606 0.899906 8.12442 0.898284 8.12278 0.896662V0.896662C8.00579 0.780877 7.8128 0.767065 7.65038 0.740411C7.42596 0.703583 7.17247 0.674805 6.8899 0.674805C5.99325 0.674805 5.3768 0.730271 5.15264 0.841202C5.08383 0.875253 5.01503 0.909302 4.95918 0.956186C4.88888 1.01521 4.76685 1.11509 4.77993 1.20595V1.20595C4.78784 1.26089 4.844 1.23422 4.89788 1.24755C5.13987 1.30742 5.33185 1.41231 5.43284 1.56224V1.56224C5.46996 1.63572 5.52023 1.70465 5.54136 1.78421C5.55666 1.84182 5.57057 1.91574 5.60096 2.00596C5.657 2.17236 5.657 2.33875 5.657 2.56061C5.657 2.89341 5.657 3.2262 5.657 3.44806C5.657 3.72539 5.60096 3.89178 5.60096 4.05817C5.60096 4.20491 5.55738 4.30852 5.50865 4.36899C5.49635 4.38425 5.48423 4.39986 5.47594 4.41762C5.45953 4.45278 5.4487 4.4813 5.43882 4.50319C5.41872 4.5477 5.36959 4.61282 5.32076 4.61282V4.61282C5.26472 4.61282 5.20868 4.66829 5.0966 4.66829C5.08193 4.66829 5.06342 4.66449 5.04308 4.65788C4.9174 4.61706 4.80581 4.53284 4.7118 4.43997V4.43997C4.61719 4.34651 4.54096 4.23446 4.4626 4.127C4.39373 4.03255 4.32486 3.91717 4.25599 3.78085C4.17192 3.61443 4.05632 3.44802 3.95648 3.23479C3.88631 3.08491 3.82625 2.9302 3.75163 2.78248V2.78248C3.69559 2.67155 3.58351 2.44969 3.47143 2.17236C3.35935 1.89504 3.24726 1.67318 3.13518 1.39585C3.08577 1.29803 3.03635 1.24334 2.98694 1.19375C2.97427 1.18103 2.957 1.17399 2.93904 1.17399V1.17399C2.92109 1.17399 2.90397 1.16675 2.88965 1.15592C2.86825 1.13973 2.83359 1.11853 2.79894 1.11853C2.7429 1.11853 2.68686 1.06306 2.63082 1.06306H0.613364C0.389202 1.06306 0.277123 1.11852 0.221083 1.17399V1.17399C0.185219 1.20948 0.165039 1.25784 0.165039 1.3083C0.165039 1.31872 0.165039 1.32955 0.165039 1.34038C0.165039 1.39585 0.165042 1.45131 0.221083 1.56224C0.501285 2.22782 0.837526 2.89341 1.17377 3.55899C1.51001 4.1691 1.84626 4.72376 2.07042 5.11201C2.35062 5.50027 2.57478 5.88852 2.85498 6.22132C2.99042 6.38218 3.09968 6.51712 3.18275 6.62615C3.30934 6.7923 3.43504 6.96181 3.5835 7.10875V7.10875L3.75163 7.27515C3.86371 7.38608 4.03183 7.55248 4.25599 7.71887C4.48015 7.88527 4.76035 8.05166 5.04055 8.21805C5.32076 8.38445 5.65701 8.49539 5.99325 8.60632C6.10834 8.63886 6.2186 8.66663 6.32546 8.68823C6.80646 8.78544 7.30461 8.71725 7.79533 8.71725H7.89862C8.06674 8.71725 8.17883 8.66178 8.29091 8.55085V8.55085C8.32676 8.51535 8.35149 8.46705 8.38512 8.42944C8.39503 8.41836 8.40298 8.40534 8.40298 8.38445C8.40298 8.32899 8.40298 8.27352 8.40298 8.16259C8.40298 7.94073 8.40298 7.77434 8.45902 7.60794C8.51506 7.44155 8.51507 7.33062 8.57111 7.21969C8.62715 7.10876 8.68318 7.05329 8.73923 6.99782C8.7718 6.96558 8.80438 6.93334 8.82595 6.91199C8.84221 6.8959 8.86415 6.8869 8.88702 6.8869V6.8869C8.90039 6.8869 8.91346 6.88351 8.92599 6.87886C9.0053 6.84949 9.10726 6.86903 9.19768 6.92055C9.2718 6.96279 9.33652 7.02018 9.40336 7.07321C9.53484 7.17752 9.65903 7.30953 9.74795 7.44155C9.86003 7.60794 10.0282 7.77434 10.2523 7.9962C10.4765 8.21806 10.6446 8.38445 10.7567 8.43992L10.9248 8.55085C11.0369 8.60631 11.149 8.66178 11.3171 8.71725C11.4852 8.77271 11.5973 8.77271 11.7094 8.77271L13.6147 8.71725C13.7829 8.71725 13.951 8.66178 14.0631 8.60632C14.1751 8.55085 14.2312 8.49538 14.2312 8.38445V8.38445C14.2312 8.24248 14.1321 8.1175 14.1201 7.97603C14.1191 7.96392 14.1191 7.95233 14.1191 7.94073Z" fill="white"/>
</svg>
